<svg id="ejR2CMaD3px1" xmlns="http://www.w3.org/2000/svg" xmlns:xlink="http://www.w3.org/1999/xlink" viewBox="0 0 3006 1488" shape-rendering="geometricPrecision" text-rendering="geometricPrecision">
<style><![CDATA[
#ejR2CMaD3px6_to {animation: ejR2CMaD3px6_to__to 4000ms linear infinite normal forwards}@keyframes ejR2CMaD3px6_to__to { 0% {transform: translate(565.315109px,684.779541px)} 10% {transform: translate(565.315109px,684.779541px)} 35% {transform: translate(565.315109px,684.779541px)} 50% {transform: translate(285.345276px,501.500061px)} 64.5% {transform: translate(565.315109px,684.779541px)} 80% {transform: translate(565.315109px,684.779541px)} 100% {transform: translate(565.315109px,684.779541px)}} #ejR2CMaD3px6_ts {animation: ejR2CMaD3px6_ts__ts 4000ms linear infinite normal forwards}@keyframes ejR2CMaD3px6_ts__ts { 0% {transform: scale(1,1)} 10% {transform: scale(1,1)} 35% {transform: scale(1,1)} 45% {transform: scale(0.7,0.7)} 55% {transform: scale(1,1)} 80% {transform: scale(1,1)} 100% {transform: scale(1,1)}} #ejR2CMaD3px10_to {animation: ejR2CMaD3px10_to__to 4000ms linear infinite normal forwards}@keyframes ejR2CMaD3px10_to__to { 0% {transform: translate(875.42937px,324.276774px);animation-timing-function: cubic-bezier(0.58,0.01,1,1)} 10% {transform: translate(966.818451px,259.358691px)} 100% {transform: translate(966.818451px,259.358691px)}} #ejR2CMaD3px11_to {animation: ejR2CMaD3px11_to__to 4000ms linear infinite normal forwards}@keyframes ejR2CMaD3px11_to__to { 0% {transform: translate(1035.500412px,413.172543px);animation-timing-function: cubic-bezier(0.58,0.01,1,1)} 10% {transform: translate(618.815109px,653.779694px)} 35% {transform: translate(618.815109px,653.779694px)} 100% {transform: translate(618.815109px,653.779694px)}} #ejR2CMaD3px24_to {animation: ejR2CMaD3px24_to__to 4000ms linear infinite normal forwards}@keyframes ejR2CMaD3px24_to__to { 0% {transform: translate(1326.75px,565.553192px)} 25% {transform: translate(1530px,690.5px)} 100% {transform: translate(1530px,690.5px)}} #ejR2CMaD3px28_to {animation: ejR2CMaD3px28_to__to 4000ms linear infinite normal forwards}@keyframes ejR2CMaD3px28_to__to { 0% {transform: translate(1047.011922px,775.486205px)} 50% {transform: translate(1047.011922px,775.486205px)} 75% {transform: translate(1174.75px,856.5px)} 100% {transform: translate(1174.75px,856.5px)}} #ejR2CMaD3px29_to {animation: ejR2CMaD3px29_to__to 4000ms linear infinite normal forwards}@keyframes ejR2CMaD3px29_to__to { 0% {transform: translate(1026.2453px,798.473205px)} 75% {transform: translate(1026.2453px,798.473205px)} 95% {transform: translate(1136px,869.513px)} 100% {transform: translate(1136px,869.513px)}} #ejR2CMaD3px30_to {animation: ejR2CMaD3px30_to__to 4000ms linear infinite normal forwards}@keyframes ejR2CMaD3px30_to__to { 0% {transform: translate(1013.503723px,724.25px)} 25% {transform: translate(1013.503723px,724.25px)} 50% {transform: translate(1217.472826px,847.25px)} 100% {transform: translate(1217.472826px,847.25px)}} #ejR2CMaD3px37_to {animation: ejR2CMaD3px37_to__to 4000ms linear infinite normal forwards}@keyframes ejR2CMaD3px37_to__to { 0% {transform: translate(1030.5px,1240.358215px)} 25% {transform: translate(1030.5px,1240.358215px)} 65% {transform: translate(774.318298px,1073.5px)} 95% {transform: translate(1037.624335px,1240.358215px)} 100% {transform: translate(1037.624335px,1240.358215px)}} #ejR2CMaD3px44_to {animation: ejR2CMaD3px44_to__to 4000ms linear infinite normal forwards}@keyframes ejR2CMaD3px44_to__to { 0% {transform: translate(577.519479px,1195.83633px)} 25% {transform: translate(577.519479px,1195.83633px)} 65% {transform: translate(851.000227px,1363.551147px)} 95% {transform: translate(577.186298px,1201.632334px)} 100% {transform: translate(577.186298px,1201.632334px)}}
]]></style>
<path d="M636.816,457.78L2.81562,816.78c-4,4.8-3.500006,12,0,16C104.982,890.613,310.216,1006.68,313.816,1008.28c7.6,5.2,20.833,2.17,26.5,0c167.166-95.167,630.9-357.9,632.5-359.5c4.4-4,1.833-13,0-17-101.667-58.667-305.5-176-307.5-176-10.8-4-23.5-.334-28.5,2Z" fill="#363636"/><path d="M1578.82,3.77975L944.816,362.78c-4,4.8-3.5,12,0,16c102.164,57.833,307.404,173.9,311.004,175.5c7.6,5.2,20.83,2.166,26.5,0c167.16-95.167,630.9-357.9,632.5-359.5c4.4-4,1.83-13,0-17-101.67-58.667-305.5-176.00025-307.5-176.00025-10.8-4-23.5-.33334-28.5,2Z" fill="#404040"/><path d="M2666.82,35.7797l-634,359.0003c-4,4.8-3.5,12,0,16c102.16,57.833,307.4,173.9,311,175.5c7.6,5.2,20.83,2.166,26.5,0c167.16-95.167,630.9-357.9,632.5-359.5c4.4-4,1.83-13,0-17-101.67-58.667-305.5-176.0003-307.5-176.0003-10.8-4-23.5-.3333-28.5,2Z" fill="#454545"/><g mask="url(#ejR2CMaD3px14)"><g id="ejR2CMaD3px6_to" transform="translate(565.315109,684.779541)"><g id="ejR2CMaD3px6_ts" transform="scale(1,1)"><g transform="translate(-565.315109,-684.779541)"><path d="M632.517,495.312L119.594,783.336c-3.237,3.852-2.832,9.628,0,12.837c82.655,46.4,248.695,139.519,251.607,140.803c6.149,4.172,16.855,1.738,21.439,0c135.243-76.352,510.416-287.142,511.71-288.425c3.56-3.209,1.483-10.43,0-13.639-82.251-47.068-247.158-141.204-248.776-141.204-8.737-3.21-19.012-.268-23.057,1.604Z" transform="translate(3.56012 0)" fill="#505050"/><g mask="url(#ejR2CMaD3px12)"><g><g id="ejR2CMaD3px10_to" transform="translate(875.42937,324.276774)"><ellipse rx="16.7235" ry="21.6691" transform="rotate(68.891817) translate(286.553,836.685)" fill="#371f97"/></g><g id="ejR2CMaD3px11_to" transform="translate(1035.500412,413.172543)"><path d="M739.517,433.312L226.594,721.337c-3.237,3.851-2.832,9.627,0,12.836c82.655,46.4,248.695,139.52,251.607,140.803c6.149,4.172,16.855,1.739,21.439,0c135.243-76.352,510.42-287.142,511.71-288.425c3.56-3.209,1.48-10.43,0-13.639-82.251-47.068-247.158-141.204-248.776-141.204-8.737-3.21-19.012-.268-23.057,1.604Z" transform="translate(-618.815109,-653.779694)" fill="#606060"/></g></g><mask id="ejR2CMaD3px12" mask-type="alpha" x="-150%" y="-150%" height="400%" width="400%"><path d="M632.517,495.312L119.594,783.336c-3.237,3.852-2.832,9.628,0,12.837c82.655,46.4,248.695,139.519,251.607,140.803c6.149,4.172,16.855,1.738,21.439,0c135.243-76.352,510.416-287.142,511.71-288.425c3.56-3.209,1.483-10.43,0-13.639-82.251-47.068-247.158-141.204-248.776-141.204-8.737-3.21-19.012-.268-23.057,1.604Z" fill="#505050"/></mask></g></g></g></g><mask id="ejR2CMaD3px14" mask-type="alpha" x="-150%" y="-150%" height="400%" width="400%"><path d="M636.816,457.78L2.81562,816.78c-4,4.8-3.500006,12,0,16C104.982,890.613,310.216,1006.68,313.816,1008.28c7.6,5.2,20.833,2.17,26.5,0c167.166-95.167,630.9-357.9,632.5-359.5c4.4-4,1.833-13,0-17-101.667-58.667-305.5-176-307.5-176-10.8-4-23.5-.334-28.5,2Z" fill="#363636"/></mask></g><path d="M1679.5,421L923,850.5c-12.4,13.6-5.167,29,0,35l842,478l816.5-462C2302,742.5,1741.8,423.8,1737,421c-26.4-12.4-49.33-5.167-57.5,0Z" transform="translate(3.027174 0)" fill="#363636"/><path d="M1644,819l303-174l290,163-302,183.5L1644,819Z" fill="#606060"/><path d="M1883,615L1243.37,987.176c-14.8,8.495-30.83,3.54-37,0l-202.5-112c-5.199-5.6-5.87-21.126,0-24.5c213.5-122.666,641.3-368,644.5-368c13.6-9.6,33.67-9.333,42-8C1754.54,511.176,1881,589,1883,591c5,5,5,19,0,24Z" fill="#606060"/><path d="M2403.41,937.263l-107.04,62.61c-19.82,15.627-37.66,11.517-44.1,7.517-34.69-18.202-102.81-58.716-109.51-62.614-12.92-7.513-7.41-30.919,0-35.061c32.54-18.199,100-56.3,109.51-63.112c17.58-12.586,33.08-14.397,44.1-8.014c34.03,19.701,103.08,60.106,107.04,64.113c6.94,7.013,7.44,24.348,0,34.561Z" transform="matrix(1.003652 0.060433 0.060433 1-64.0781-137.29722)" fill="#505050"/><path d="M1589.5,853L1311,1016.5l443,257l275.5-168-440-252.5Z" fill="#505050"/><path d="M1673.5,499.5l-131.5,75l181,104L1847.5,607l-174-107.5Z" fill="#371f97" fill-opacity="0.5"/><g transform="translate(0 1.013795)" mask="url(#ejR2CMaD3px31)"><g><g id="ejR2CMaD3px24_to" transform="translate(1326.75,565.553192)"><g transform="translate(-1530,-690.5)"><path d="M1682,698.961L1649.68,716L1479,616.607L1511.89,599l85.05,49.981l85.06,49.98Z" fill="#505050"/><path d="M1633,729.961L1600.68,747L1430,647.607L1462.89,630l85.05,49.981l85.06,49.98Z" fill="#505050"/><path d="M1581,764.961L1548.68,782L1378,682.607L1410.89,665l85.05,49.981l85.06,49.98Z" fill="#505050"/></g></g><g id="ejR2CMaD3px28_to" transform="translate(1047.011922,775.486205)"><path d="M1232.5,881l-13.5,8-102-56.5l19-8.5l96.5,57Z" transform="translate(-1174.75,-856.5)" fill="#363636" fill-opacity="0.5"/></g><g id="ejR2CMaD3px29_to" transform="translate(1026.2453,798.473205)"><path d="M1187,890.026l-13.5,8L1085,849.5l19-8.5l83,49.026Z" transform="translate(-1136,-869.513)" fill="#363636" fill-opacity="0.5"/></g><g id="ejR2CMaD3px30_to" transform="translate(1013.503723,724.25)"><path d="M1292,879.5l-13.5,8-129.5-72l19-8.5l124,72.5Z" transform="translate(-1220.5,-847.25)" fill="#363636" fill-opacity="0.5"/></g></g><mask id="ejR2CMaD3px31" mask-type="alpha" x="-150%" y="-150%" height="400%" width="400%"><path d="M1858.28,652l-639.62,372.18c-14.8,8.49-30.84,3.54-37,0L979.156,912.176c-5.2-5.6-5.872-21.126,0-24.5c213.504-122.666,641.304-368,644.504-368c13.6-9.6,33.66-9.333,42-8C1729.82,548.176,1856.28,626,1858.28,628c5,5,5,19,0,24Z" fill="#606060"/></mask></g><path d="M1796.5,1223.5l-41.5,24-98-57l44.5-21.5l95,54.5Z" transform="translate(8.71564-5.438771)" fill="#371f97" fill-opacity="0.8"/><path d="M350,1117L788.992,862L1419,1230L981.481,1488L350,1117Z" fill="#363636"/><path d="M1945,684l-28,15.5L2141.5,828l28-14.5L1945,684Z" fill="#505050"/><g mask="url(#ejR2CMaD3px42)"><g id="ejR2CMaD3px37_to" transform="translate(1030.5,1240.358215)"><g transform="translate(-1018,-1230.5)"><path d="M941,1015.91L644.58,1183L468,1080.09L763.89,913L941,1015.91Z" fill="#606060"/><path d="M1154,1135.91L857.58,1303L681,1200.09L976.89,1033L1154,1135.91Z" fill="#606060"/><path d="M1360,1260.91L1063.58,1428L887,1325.09L1182.89,1158L1360,1260.91Z" fill="#606060"/><path d="M1568,1380.91L1271.58,1548L1095,1445.09L1390.89,1278L1568,1380.91Z" fill="#606060"/></g></g><mask id="ejR2CMaD3px42" mask-type="alpha" x="-150%" y="-150%" height="400%" width="400%"><path d="M395,1104.33L823.315,853L1438,1215.71L1011.12,1470L395,1104.33Z" fill="#363636"/></mask></g><g id="ejR2CMaD3px44_to" transform="translate(577.519479,1195.83633)"><path d="M451.211,1118.15c-19.5-11-41,9.79-28.5,17c91.334,52.66,275.4,158,281,158c21,10.5,38.5-7.35,25.5-15-90-53-272.4-160-278-160Z" transform="translate(-576.336914,-1205.688049)" fill="#371f97"/></g></svg>
